<svg xmlns="http://www.w3.org/2000/svg" xmlns:xlink="http://www.w3.org/1999/xlink"><defs><symbol viewBox="0 0 18 18" fill="currentColor" stroke="currentColor" role="presentation" aria-hidden="true" id="arrow-down"><path d="m16.29 4.3a1 1 0 1 1 1.41 1.42l-8 8a1 1 0 0 1 -1.41 0l-8-8a1 1 0 1 1 1.41-1.42l7.29 7.29z" fill-rule="evenodd" /></symbol><symbol viewBox="0 0 25 25" id="arrow-left"><defs><style>#arrow-left .cls-1{fill:#353638;}</style></defs><title>arrow-left</title><g id="arrow-left_budicon-arrow-left"><path class="cls-1" d="M23.0754,13a.5.5,0,0,1-.5.5H2.7825L8.929,19.6465a.5.5,0,1,1-.707.707l-7-7a.5.5,0,0,1,0-.707l7-7a.5.5,0,0,1,.707.707L2.7825,12.5h19.793A.5.5,0,0,1,23.0754,13Z" /></g></symbol><symbol viewBox="0 0 25 25" id="arrow-right"><defs><style>#arrow-right .cls-1{fill:#353638;}</style></defs><title>arrow-right</title><g id="arrow-right_budicon-arrow-right"><path class="cls-1" d="M22,11.5a.4984.4984,0,0,1-.1465.3535l-7,7a.5.5,0,0,1-.707-.707L20.293,12H.5a.5.5,0,0,1,0-1H20.293L14.1465,4.8535a.5.5,0,0,1,.707-.707l7,7A.4984.4984,0,0,1,22,11.5Z" /></g></symbol><symbol fill="currentColor" stroke="currentColor" viewBox="0 0 25 25" id="checkmark"><title>budicon-check-ui</title><g id="checkmark_budicon-check-ui"><path d="M20.8643,5.8428l-9.6465,10a.5.5,0,0,1-.6992.0283L5.165,10.8463a.5.5,0,1,1,.67-.7422l4.99,4.6968,9.311-9.6436a.5.5,0,1,1,.7285.6855Z" /></g></symbol><symbol fill="currentColor" stroke="currentColor" viewBox="0 0 25 25" id="chevron-left"><defs><style>#chevron-left .cls-1{fill:#353638;}</style></defs><title>chevron-left</title><g id="chevron-left_budicon-chevron-left"><path class="cls-1" d="M14.8535,21.1465a.5.5,0,1,1-.707.707l-9-9a.5.5,0,0,1,0-.707l9-9a.5.5,0,1,1,.707.707L6.207,12.5Z" /></g></symbol><symbol stroke="currentColor" viewBox="0 0 25 25" id="chevron-right"><defs><style>#chevron-right .cls-1{fill:#353638;}</style></defs><title>chevron-right</title><g id="chevron-right_budicon-chevron-right"><path class="cls-1" d="M18.8535,12.8535l-9,9a.5.5,0,0,1-.707-.707L17.793,12.5,9.1465,3.8535a.5.5,0,0,1,.707-.707l9,9A.5.5,0,0,1,18.8535,12.8535Z" /></g></symbol><symbol viewBox="0 0 32 32" fill="currentColor" stroke="currentColor" stroke-width="4" aria-hidden="true" role="presentation" id="close"><path d="m6 6 20 20" /><path d="m26 6-20 20" /></symbol><symbol fill="currentColor" stroke="currentColor" viewBox="0 0 25 25" id="hamburger"><title>budicon-hamburger-ui</title><g id="hamburger_budicon-hamburger-ui"><path d="M3,7.5A.5.5,0,0,1,3.5,7h18a.5.5,0,0,1,0,1H3.5A.5.5,0,0,1,3,7.5ZM21.5,13H3.5a.5.5,0,0,0,0,1h18a.5.5,0,0,0,0-1Zm0,6H3.5a.5.5,0,0,0,0,1h18a.5.5,0,0,0,0-1Z" /></g></symbol><symbol viewBox="0 0 32 32" fill="currentColor" stroke="currentColor" aria-hidden="true" role="presentation" id="heart"><path d="m16 28c7-4.733 14-10 14-17 0-1.792-.683-3.583-2.05-4.95-1.367-1.366-3.158-2.05-4.95-2.05-1.791 0-3.583.684-4.949 2.05l-2.051 2.051-2.05-2.051c-1.367-1.366-3.158-2.05-4.95-2.05-1.791 0-3.583.684-4.949 2.05-1.367 1.367-2.051 3.158-2.051 4.95 0 7 7 12.267 14 17z" /></symbol><symbol viewBox="0 0 32 32" fill="currentColor" stroke="currentColor" aria-hidden="true" role="presentation" id="star"><path d="M15.094 1.579l-4.124 8.885-9.86 1.27a1 1 0 0 0-.542 1.736l7.293 6.565-1.965 9.852a1 1 0 0 0 1.483 1.061L16 25.951l8.625 4.997a1 1 0 0 0 1.482-1.06l-1.965-9.853 7.293-6.565a1 1 0 0 0-.541-1.735l-9.86-1.271-4.127-8.885a1 1 0 0 0-1.814 0z" fill-rule="evenodd" /></symbol></defs></svg>